<svg width="20" height="20" viewBox="0 0 20 20" fill="none" xmlns="http://www.w3.org/2000/svg">
<path d="M17.5 6.66666C17.5 5.28582 14.8884 4.16666 11.6667 4.16666C8.44504 4.16666 5.83337 5.28582 5.83337 6.66666M17.5 6.66666V9.99999C17.5 10.85 16.5117 11.6 15 12.0517C14.055 12.335 12.9059 12.5 11.6667 12.5C10.4275 12.5 9.27837 12.3342 8.33337 12.0517C6.82254 11.6 5.83337 10.85 5.83337 9.99999V6.66666M17.5 6.66666C17.5 7.51666 16.5117 8.26666 15 8.71832C14.055 9.00166 12.9059 9.16666 11.6667 9.16666C10.4275 9.16666 9.27837 9.00082 8.33337 8.71832C6.82254 8.26666 5.83337 7.51666 5.83337 6.66666" stroke="#E84057" stroke-width="1.8" stroke-linecap="round" stroke-linejoin="round"/>
<path d="M2.5 9.99998V13.3333C2.5 14.1833 3.48917 14.9333 5 15.385C5.945 15.6683 7.09417 15.8333 8.33333 15.8333C9.5725 15.8333 10.7217 15.6675 11.6667 15.385C13.1775 14.9333 14.1667 14.1833 14.1667 13.3333V12.5M2.5 9.99998C2.5 9.00248 3.8625 8.14165 5.83333 7.74081M2.5 9.99998C2.5 10.85 3.48917 11.6 5 12.0516C5.945 12.335 7.09417 12.5 8.33333 12.5C8.9125 12.5 9.47167 12.4641 10 12.3966" stroke="#E84057" stroke-width="1.8" stroke-linecap="round" stroke-linejoin="round"/>
</svg>
