<svg width="314" height="84" viewBox="0 0 314 84" fill="none" xmlns="http://www.w3.org/2000/svg">
<g clip-path="url(#clip0_207_1742)">
<rect width="314" height="84" fill="#2F3037"/>
<path d="M380.638 -25.9708C380.887 -26.0289 381.148 -25.9998 381.378 -25.8883C381.607 -25.7769 381.791 -25.59 381.898 -25.3592C382.005 -25.1285 382.029 -24.8681 381.965 -24.6221C381.901 -24.3762 381.753 -24.1598 381.547 -24.0096L178.602 125.48L202.798 172.536C202.92 172.76 202.96 173.017 202.912 173.267C202.864 173.516 202.732 173.741 202.536 173.904C202.341 174.067 202.095 174.158 201.84 174.162C201.585 174.166 201.336 174.082 201.136 173.925L157 141.411L112.853 173.914C112.632 174.081 112.355 174.16 112.077 174.134L111.689 174.024C111.559 173.958 111.442 173.868 111.347 173.758C111.252 173.647 111.179 173.519 111.134 173.381C111.089 173.243 111.071 173.097 111.083 172.952C111.094 172.807 111.135 172.666 111.202 172.536L135.387 125.48L-67.5469 -24.0096C-67.753 -24.1598 -67.9006 -24.3762 -67.9646 -24.6221C-68.0287 -24.8681 -68.0052 -25.1285 -67.8983 -25.3592C-67.7914 -25.59 -67.6075 -25.7769 -67.3778 -25.8883C-67.1482 -25.9998 -66.8868 -26.0289 -66.638 -25.9708L122.895 17.913C123.052 17.95 123.198 18.0205 123.324 18.1194C123.451 18.2183 123.554 18.3434 123.627 18.4859L157 83.4247L190.373 18.4859C190.472 18.2915 190.626 18.1305 190.817 18.0232L191.116 17.913L380.638 -25.9708Z" fill="#FAFAFA" fill-opacity="0.05"/>
<path d="M143.361 45.1963H138.176L144.223 57.0088H149.698L155.754 45.1963H150.568L146.965 53.3965L143.361 45.1963ZM160.263 49.0723C160.263 48.1318 162.021 47.9209 163.453 47.9209C164.895 47.9209 166.116 48.1406 166.644 49.0723H171.469C171.029 45.3809 167.593 44.915 163.453 44.8887C159.305 44.8887 155.438 45.6973 155.438 49.0723C155.429 52.0254 160.061 52.2539 163.356 52.4209C165.211 52.5088 166.644 52.5879 166.644 53.1064C166.644 54.0205 164.886 54.2578 163.453 54.2578C162.012 54.2578 160.79 54.0205 160.263 53.1064H155.438C155.877 56.7715 159.313 57.2725 163.453 57.2812C167.602 57.2812 171.469 56.4814 171.469 53.1064C171.478 50.1445 166.846 49.916 163.55 49.749C161.695 49.6611 160.263 49.5908 160.263 49.0723Z" fill="white"/>
</g>
<defs>
<clipPath id="clip0_207_1742">
<rect width="314" height="84" fill="white"/>
</clipPath>
</defs>
</svg>
