<svg width="100" height="31" viewBox="0 0 100 31" fill="none" xmlns="http://www.w3.org/2000/svg">
<g filter="url(#filter0_d_223_1788)">
<path d="M13.319 0.942999H8.402L2.99 3.583L4.937 7.972L8.402 6.355V25.231H13.319V0.942999ZM25.5978 9.259C24.1128 9.259 23.3208 9.523 22.0998 10.117L22.1988 5.794H32.2308V1.009H17.8098L17.5128 13.252L21.0108 15.199C21.9018 14.407 23.4528 14.077 24.9378 14.077C27.5118 14.077 29.0298 15.595 29.0298 17.41C29.0298 19.192 27.5118 20.677 24.9378 20.677C23.2548 20.677 21.6048 20.017 20.8128 19.126L20.5488 18.796L16.1928 20.974C16.3908 21.271 16.6878 21.568 16.7868 21.766C18.4698 24.109 21.8358 25.528 24.9378 25.528C30.0528 25.528 33.6828 21.931 33.6828 17.41C33.6828 12.823 30.6468 9.259 25.5978 9.259ZM35.6469 21.271V26.122H40.6629V21.271H35.6469ZM70.1945 11.371H58.5125V16.222H64.6505C63.5615 19.819 59.5025 20.809 57.8525 20.809C53.6615 20.809 50.1635 17.443 50.1635 13.087C50.1635 8.764 53.6615 5.398 57.8525 5.398C62.2415 5.398 64.2545 8.863 64.2545 8.863L68.6765 6.355C68.6765 6.355 65.8055 0.348999 57.8855 0.348999C50.4605 0.348999 45.2135 5.992 45.2135 13.087C45.2135 20.215 50.4605 25.858 57.8855 25.858C64.2545 25.858 69.4025 21.469 70.1615 15.001C70.1615 15.001 70.3265 12.229 70.1945 11.371ZM97.5072 11.371H85.8252V16.222H91.9632C90.8742 19.819 86.8152 20.809 85.1652 20.809C80.9742 20.809 77.4762 17.443 77.4762 13.087C77.4762 8.764 80.9742 5.398 85.1652 5.398C89.5542 5.398 91.5672 8.863 91.5672 8.863L95.9892 6.355C95.9892 6.355 93.1182 0.348999 85.1982 0.348999C77.7732 0.348999 72.5262 5.992 72.5262 13.087C72.5262 20.215 77.7732 25.858 85.1982 25.858C91.5672 25.858 96.7152 21.469 97.4742 15.001C97.4742 15.001 97.6392 12.229 97.5072 11.371Z" fill="url(#paint0_linear_223_1788)"/>
</g>
<defs>
<filter id="filter0_d_223_1788" x="0.990234" y="0.348999" width="98.6489" height="29.773" filterUnits="userSpaceOnUse" color-interpolation-filters="sRGB">
<feFlood flood-opacity="0" result="BackgroundImageFix"/>
<feColorMatrix in="SourceAlpha" type="matrix" values="0 0 0 0 0 0 0 0 0 0 0 0 0 0 0 0 0 0 127 0" result="hardAlpha"/>
<feOffset dy="2"/>
<feGaussianBlur stdDeviation="1"/>
<feComposite in2="hardAlpha" operator="out"/>
<feColorMatrix type="matrix" values="0 0 0 0 0 0 0 0 0 0 0 0 0 0 0 0 0 0 0.25 0"/>
<feBlend mode="normal" in2="BackgroundImageFix" result="effect1_dropShadow_223_1788"/>
<feBlend mode="normal" in="SourceGraphic" in2="effect1_dropShadow_223_1788" result="shape"/>
</filter>
<linearGradient id="paint0_linear_223_1788" x1="51" y1="23.2708" x2="51" y2="-9.27083" gradientUnits="userSpaceOnUse">
<stop offset="0.348958" stop-color="#E84057"/>
<stop offset="1" stop-color="#E4E4E4"/>
</linearGradient>
</defs>
</svg>
