<svg width="50" height="14" viewBox="0 0 50 14" fill="none" xmlns="http://www.w3.org/2000/svg">
<rect width="50" height="14" rx="4" fill="#61D125"/>
<path d="M10.6033 3.304V7.048H11.6753V3.304H10.6033ZM6.73131 7.376V8.184H10.6193V8.616H6.74731V10.128H7.78731V9.384H11.6753V7.376H6.73131ZM6.74731 9.84V10.664H11.8593V9.84H6.74731ZM7.25131 3.472V4.032C7.25131 4.936 6.72331 5.864 5.48331 6.24L5.99531 7.08C7.44331 6.64 8.13131 5.4 8.13131 4.032V3.472H7.25131ZM7.46731 3.472V4.032C7.46731 5.368 8.13131 6.528 9.55531 6.944L10.0673 6.12C8.85931 5.776 8.33931 4.912 8.33931 4.032V3.472H7.46731ZM14.6827 3.872V4.952C14.6827 6.392 14.0747 7.816 12.7867 8.376L13.4187 9.256C14.8907 8.576 15.5467 6.856 15.5467 4.952V3.872H14.6827ZM14.8907 3.872V4.952C14.8907 6.776 15.5467 8.424 16.9787 9.08L17.6027 8.224C16.3387 7.68 15.7547 6.32 15.7547 4.952V3.872H14.8907ZM17.9547 3.296V10.728H19.0267V3.296H17.9547ZM24.9941 3.304V8.608H26.0661V3.304H24.9941ZM25.7621 5.368V6.24H27.0501V5.368H25.7621ZM22.9301 3.856V4.384C22.9301 5.56 21.9941 6.552 20.1781 7.048L20.6261 7.896C22.8341 7.256 24.0661 5.872 24.0661 3.856H22.9301ZM20.4981 3.856V4.712H23.5061V3.856H20.4981ZM21.2741 9.736V10.584H26.3141V9.736H21.2741ZM21.2741 8.072V10.112H22.3461V8.072H21.2741ZM29.4059 7.096V7.936H36.1099V7.096H29.4059ZM32.3099 7.544V9.104H33.3819V7.544H32.3099ZM30.1819 9.736V10.584H35.3739V9.736H30.1819ZM30.1819 8.544V10.096H31.2379V8.544H30.1819ZM30.2619 3.536V6.584H35.2539V3.536H34.1979V4.296H31.3099V3.536H30.2619ZM31.3099 5.096H34.1979V5.752H31.3099V5.096ZM40.5493 4.68V5.544H42.0533V4.68H40.5493ZM38.4613 3.688V4.384C38.4613 5.384 37.9573 6.36 36.7173 6.768L37.2773 7.608C38.6853 7.12 39.3333 5.848 39.3333 4.384V3.688H38.4613ZM38.6773 3.688V4.448C38.6773 5.816 39.2933 7.016 40.6373 7.48L41.1893 6.648C40.0293 6.272 39.5333 5.368 39.5333 4.448V3.688H38.6773ZM37.9173 8.048V8.888H41.9013V10.712H42.9653V8.048H37.9173ZM41.9013 3.304V7.712H42.9653V3.304H41.9013Z" fill="white"/>
</svg>
