<svg width="10" height="10" viewBox="0 0 10 10" fill="none" xmlns="http://www.w3.org/2000/svg">
<path d="M1.57 0C2.36 0.605 4.36 2.5115 5.058 4.9765C5.756 7.4415 5.058 10 5.058 10C3.6835 8.418 2.1115 7.4 1.968 7.309L1.958 7.3025C1.725 5.907 0.5 3.395 0.5 3.395C2.268 3.8285 2.965 5.5345 2.965 5.5345C2.779 3.349 1.57 0 1.57 0ZM9.058 2.9535C9.058 2.9535 8.4365 4.189 8.151 5.2555C8.0335 5.6945 8.0085 6.3555 8.006 6.7845V6.9255C8.0075 7.099 8.011 7.2095 8.011 7.2095C8.011 7.2095 7.142 8.408 6.321 9.0485C6.365 8.248 6.352 7.331 6.217 6.3815C6.681 5.37 7.64 3.6545 9.058 2.9535ZM7.996 0.288C7.996 0.288 6.8335 1.814 6.578 3.3025C6.523 3.6205 6.4775 3.8995 6.436 4.15C6.2465 4.442 6.071 4.733 5.911 5.0165C5.8945 4.954 5.881 4.8915 5.8635 4.829C5.7125 4.294 5.5115 3.7815 5.2835 3.289C5.31 3.216 5.335 3.144 5.3685 3.07C5.3685 3.07 6.2755 1.18 7.996 0.288Z" fill="#FAFAFA"/>
</svg>
