<svg width="12" height="12" viewBox="0 0 12 12" fill="none" xmlns="http://www.w3.org/2000/svg">
<path d="M2.57 1C3.36 1.605 5.36 3.5115 6.058 5.9765C6.756 8.4415 6.058 11 6.058 11C4.6835 9.418 3.1115 8.4 2.968 8.309L2.958 8.3025C2.725 6.907 1.5 4.395 1.5 4.395C3.268 4.8285 3.965 6.5345 3.965 6.5345C3.779 4.349 2.57 1 2.57 1ZM10.058 3.9535C10.058 3.9535 9.4365 5.189 9.151 6.2555C9.0335 6.6945 9.0085 7.3555 9.006 7.7845V7.9255C9.0075 8.099 9.011 8.2095 9.011 8.2095C9.011 8.2095 8.142 9.408 7.321 10.0485C7.365 9.248 7.352 8.331 7.217 7.3815C7.681 6.37 8.64 4.6545 10.058 3.9535V3.9535ZM8.996 1.288C8.996 1.288 7.8335 2.814 7.578 4.3025C7.523 4.6205 7.4775 4.8995 7.436 5.15C7.2465 5.442 7.071 5.733 6.911 6.0165C6.8945 5.954 6.881 5.8915 6.8635 5.829C6.7125 5.294 6.5115 4.7815 6.2835 4.289C6.31 4.216 6.335 4.144 6.3685 4.07C6.3685 4.07 7.2755 2.18 8.996 1.288V1.288Z" fill="#FAFAFA"/>
</svg>
