<svg width="28" height="38" viewBox="0 0 28 38" fill="none" xmlns="http://www.w3.org/2000/svg">
<path d="M0.774 20.966V23.612H3.51V20.966H0.774ZM10.6182 20.696C9.50217 20.696 8.51217 19.706 8.51217 18.392C8.51217 17.114 9.50217 16.124 10.6182 16.124C11.7522 16.124 12.7422 17.114 12.7422 18.392C12.7422 19.706 11.7522 20.696 10.6182 20.696ZM5.74017 18.41C5.74017 21.308 7.77417 23.324 10.3662 23.324C11.0322 23.324 12.0762 23.18 13.0122 22.1V23.162C13.0122 24.782 10.9242 25.07 10.3662 25.07C10.0242 25.07 8.78217 24.98 8.15217 23.99L5.84817 25.538C6.74817 26.888 8.65617 27.68 10.3662 27.68C12.9942 27.68 15.7662 26.168 15.7662 22.712V13.478H13.0122V14.702C12.2022 13.712 10.9962 13.514 10.3662 13.514C7.77417 13.514 5.74017 15.548 5.74017 18.41ZM21.6488 20.696C20.5328 20.696 19.5428 19.706 19.5428 18.392C19.5428 17.114 20.5328 16.124 21.6488 16.124C22.7828 16.124 23.7728 17.114 23.7728 18.392C23.7728 19.706 22.7828 20.696 21.6488 20.696ZM16.7708 18.41C16.7708 21.308 18.8048 23.324 21.3968 23.324C22.0628 23.324 23.1068 23.18 24.0428 22.1V23.162C24.0428 24.782 21.9548 25.07 21.3968 25.07C21.0548 25.07 19.8128 24.98 19.1828 23.99L16.8788 25.538C17.7788 26.888 19.6868 27.68 21.3968 27.68C24.0248 27.68 26.7968 26.168 26.7968 22.712V13.478H24.0428V14.702C23.2328 13.712 22.0268 13.514 21.3968 13.514C18.8048 13.514 16.7708 15.548 16.7708 18.41Z" fill="url(#paint0_linear_222_1810)"/>
<defs>
<linearGradient id="paint0_linear_222_1810" x1="14" y1="21.875" x2="14" y2="4.125" gradientUnits="userSpaceOnUse">
<stop stop-color="#E84057"/>
<stop offset="1" stop-color="#E4E4E4"/>
</linearGradient>
</defs>
</svg>
