<svg width="314" height="38" viewBox="0 0 314 38" fill="none" xmlns="http://www.w3.org/2000/svg">
<rect width="314" height="38" rx="18" fill="#35363B"/>
<rect x="12" y="10" width="28" height="18" rx="8" fill="#E84057"/>
<path d="M18.6445 23H20.6367V20.6797L21.4805 19.6367L23.625 23H26.0156L22.9336 18.3008L25.9688 14.5156H23.6016L20.7539 18.1367H20.6367V14.5156H18.6445V23ZM26.7656 23H28.7578V20.082H29.8711L31.4297 23H33.6211L31.8457 19.7598C32.7832 19.332 33.3223 18.5 33.3164 17.3281C33.3223 15.5996 32.1445 14.5156 30.2344 14.5156H26.7656V23ZM28.7578 18.4883V16.1328H29.8125C30.7559 16.1328 31.2539 16.5312 31.2539 17.3281C31.2539 18.125 30.7559 18.4941 29.8125 18.4883H28.7578Z" fill="#FAFAFA"/>
</svg>
